<svg width="24" height="24" viewBox="0 0 24 24" fill="none" xmlns="http://www.w3.org/2000/svg">
<path d="M12 23C18.0751 23 23 18.0751 23 12C23 5.92487 18.0751 1 12 1C5.92487 1 1 5.92487 1 12C1 18.0751 5.92487 23 12 23Z" stroke="#0070BA"/>
<path d="M11.4802 15.0341L6.9655 10.5083C6.67817 10.2204 6.67817 9.7536 6.9655 9.46584C7.25258 9.17805 7.7182 9.17805 8.00526 9.46584L12.0001 13.4705L15.9947 9.46595C16.2819 9.17817 16.7475 9.17817 17.0346 9.46595C17.3218 9.75374 17.3218 10.2205 17.0346 10.5084L12.5198 15.0342C12.3762 15.1781 12.1882 15.25 12.0001 15.25C11.8119 15.25 11.6237 15.178 11.4802 15.0341Z" fill="#0070BA"/>
</svg>
