<svg width="24" height="24" viewBox="0 0 24 24" fill="none" xmlns="http://www.w3.org/2000/svg">
<path d="M12 23C18.0751 23 23 18.0751 23 12C23 5.92487 18.0751 1 12 1C5.92487 1 1 5.92487 1 12C1 18.0751 5.92487 23 12 23Z" stroke="#0070BA"/>
<path d="M11.4802 9.46587L6.9655 13.9917C6.67817 14.2796 6.67817 14.7464 6.9655 15.0342C7.25258 15.3219 7.7182 15.3219 8.00526 15.0342L12.0001 11.0295L15.9947 15.034C16.2819 15.3218 16.7475 15.3218 17.0346 15.034C17.3218 14.7463 17.3218 14.2795 17.0346 13.9916L12.5198 9.46576C12.3762 9.32186 12.1882 9.25 12.0001 9.25C11.8119 9.25 11.6237 9.322 11.4802 9.46587Z" fill="#0070BA"/>
</svg>
